HIERARCHY
ROOT Hips
{
	OFFSET 0.000000 0.000000 0.000000
	CHANNELS 6 Xposition Yposition Zposition Xrotation Yrotation Zrotation
	JOINT C_ctrl
	{
		OFFSET 0.000000 35.040482 -0.000011
		CHANNELS 3 Xrotation Yrotation Zrotation
		JOINT Bip01
		{
			OFFSET -41.537640 41.789009 -0.000007
			CHANNELS 3 Xrotation Yrotation Zrotation
			JOINT Bip01_Pelvis
			{
				OFFSET -2.462887 0.000000 0.000000
				CHANNELS 3 Xrotation Yrotation Zrotation
				JOINT BN_Tail_01
				{
					OFFSET -11.399368 7.351341 -0.000013
					CHANNELS 3 Xrotation Yrotation Zrotation
					JOINT BN_Tail_02
					{
						OFFSET -11.365196 -0.343025 0.000012
						CHANNELS 3 Xrotation Yrotation Zrotation
						JOINT BN_Tail_03
						{
							OFFSET -15.076256 -0.454979 0.000017
							CHANNELS 3 Xrotation Yrotation Zrotation
							JOINT BN_Tail_04
							{
								OFFSET -17.395691 -0.525002 0.000016
								CHANNELS 3 Xrotation Yrotation Zrotation
								JOINT BN_Tail_05
								{
									OFFSET -16.699837 -0.504005 0.000016
									CHANNELS 3 Xrotation Yrotation Zrotation
									End Site
									{
										OFFSET 0.503998 -16.699829 0.000067
									}
								}
							}
						}
					}
				}
				JOINT Bip01_Spine
				{
					OFFSET 8.297798 5.916809 -0.000020
					CHANNELS 3 Xrotation Yrotation Zrotation
					JOINT Bip01_R_Thigh
					{
						OFFSET -8.297779 -5.916794 10.541781
						CHANNELS 3 Xrotation Yrotation Zrotation
						JOINT Bip01_R_Calf
						{
							OFFSET 5.631542 -22.906792 0.862690
							CHANNELS 3 Xrotation Yrotation Zrotation
							JOINT Bip01_R_HorseLink
							{
								OFFSET -16.984341 -19.231926 -3.555767
								CHANNELS 3 Xrotation Yrotation Zrotation
								JOINT Bip01_R_Foot
								{
									OFFSET 4.290367 -24.783146 0.578056
									CHANNELS 3 Xrotation Yrotation Zrotation
									JOINT Bip01_R_Toe0
									{
										OFFSET 3.561211 -5.815116 0.760802
										CHANNELS 3 Xrotation Yrotation Zrotation
										JOINT Bip01_R_Toe0Nub
										{
											OFFSET 16.135469 0.002017 1.534789
											CHANNELS 3 Xrotation Yrotation Zrotation
											End Site
											{
												OFFSET -0.000002 16.208284 -0.000056
											}
										}
									}
								}
							}
						}
					}
					JOINT Bip01_L_Thigh
					{
						OFFSET -8.297813 -5.916832 -10.541739
						CHANNELS 3 Xrotation Yrotation Zrotation
						JOINT Bip01_L_Calf
						{
							OFFSET 5.631535 -22.906792 -0.862625
							CHANNELS 3 Xrotation Yrotation Zrotation
							JOINT Bip01_L_HorseLink
							{
								OFFSET -16.984318 -19.231949 3.555875
								CHANNELS 3 Xrotation Yrotation Zrotation
								JOINT Bip01_L_Foot
								{
									OFFSET 4.290367 -24.783169 -0.577965
									CHANNELS 3 Xrotation Yrotation Zrotation
									JOINT Bip01_L_Toe0
									{
										OFFSET 3.561245 -5.815111 -0.760799
										CHANNELS 3 Xrotation Yrotation Zrotation
										JOINT Bip01_L_Toe0Nub
										{
											OFFSET 6.574303 -0.000005 -1.538561
											CHANNELS 3 Xrotation Yrotation Zrotation
											End Site
											{
												OFFSET 0.000004 -6.751935 0.000023
											}
										}
									}
								}
							}
						}
					}
					JOINT Bip01_Spine1
					{
						OFFSET 20.556803 -4.626213 -0.000025
						CHANNELS 3 Xrotation Yrotation Zrotation
						JOINT Saddle
						{
							OFFSET 17.608810 18.174690 -0.000143
							CHANNELS 3 Xrotation Yrotation Zrotation
							End Site
							{
								OFFSET -0.000063 -0.000061 -22.448387
							}
						}
						JOINT BN_center
						{
							OFFSET 10.743275 -13.417107 -0.172041
							CHANNELS 3 Xrotation Yrotation Zrotation
							End Site
							{
								OFFSET 22.434088 0.553078 -0.579614
							}
						}
						JOINT Bip01_Spine2
						{
							OFFSET 24.765072 -2.054115 -0.000032
							CHANNELS 3 Xrotation Yrotation Zrotation
							JOINT Handle
							{
								OFFSET 63.735676 16.430748 -16.052464
								CHANNELS 3 Xrotation Yrotation Zrotation
								JOINT IK_Chain01
								{
									OFFSET -4.713058 -6.020439 0.185448
									CHANNELS 3 Xrotation Yrotation Zrotation
									End Site
									{
										OFFSET -0.000023 -0.000023 -7.648071
									}
								}
							}
							JOINT BN_hair04_01
							{
								OFFSET 1.987491 16.256981 -2.049672
								CHANNELS 3 Xrotation Yrotation Zrotation
								JOINT BN_hair04_02
								{
									OFFSET -1.318762 -3.831451 -6.174704
									CHANNELS 3 Xrotation Yrotation Zrotation
									JOINT BN_hair04_03
									{
										OFFSET -0.827490 -5.886627 -5.656666
										CHANNELS 3 Xrotation Yrotation Zrotation
										End Site
										{
											OFFSET -2.658262 5.010620 -5.929780
										}
									}
								}
							}
							JOINT Bip01_Neck
							{
								OFFSET 25.574577 9.433014 -0.000084
								CHANNELS 3 Xrotation Yrotation Zrotation
								JOINT Bip01_R_Clavicle
								{
									OFFSET -16.535652 0.011192 6.705692
									CHANNELS 3 Xrotation Yrotation Zrotation
									JOINT Bip01_R_UpperArm
									{
										OFFSET 20.272621 -12.959984 2.510816
										CHANNELS 3 Xrotation Yrotation Zrotation
										JOINT Bip01_R_Forearm
										{
											OFFSET -13.633509 -15.503704 -0.653585
											CHANNELS 3 Xrotation Yrotation Zrotation
											JOINT Bip01_R_Hand
											{
												OFFSET 2.580030 -27.804676 -1.136415
												CHANNELS 3 Xrotation Yrotation Zrotation
												JOINT Bip01_R_Finger0
												{
													OFFSET -0.281744 -19.659061 -0.398649
													CHANNELS 3 Xrotation Yrotation Zrotation
													JOINT Bip01_Xtra02
													{
														OFFSET 4.152210 -5.712314 0.433813
														CHANNELS 3 Xrotation Yrotation Zrotation
														JOINT Bip01_Xtra02Nub
														{
															OFFSET 15.457960 0.041654 0.507982
															CHANNELS 3 Xrotation Yrotation Zrotation
															End Site
															{
																OFFSET -15.421730 -0.157725 -1.163459
															}
														}
													}
													JOINT Bip01_R_Finger0Nub
													{
														OFFSET 8.362326 -9.718440 -0.143142
														CHANNELS 3 Xrotation Yrotation Zrotation
														End Site
														{
															OFFSET -1.213036 -0.198171 9.872291
														}
													}
												}
											}
										}
									}
								}
								JOINT Bip01_L_Clavicle
								{
									OFFSET -16.535673 0.011162 -6.705583
									CHANNELS 3 Xrotation Yrotation Zrotation
									JOINT Bip01_L_UpperArm
									{
										OFFSET 20.272615 -12.959999 -2.510836
										CHANNELS 3 Xrotation Yrotation Zrotation
										JOINT Bip01_L_Forearm
										{
											OFFSET -13.633495 -15.503681 0.653678
											CHANNELS 3 Xrotation Yrotation Zrotation
											JOINT Bip01_L_Hand
											{
												OFFSET 2.579988 -27.804686 1.136487
												CHANNELS 3 Xrotation Yrotation Zrotation
												JOINT Bip01_L_Finger0
												{
													OFFSET -0.281765 -19.659058 0.398696
													CHANNELS 3 Xrotation Yrotation Zrotation
													JOINT Bip01_Xtra01
													{
														OFFSET 4.083549 -5.738758 -0.666714
														CHANNELS 3 Xrotation Yrotation Zrotation
														JOINT Bip01_Xtra01Nub
														{
															OFFSET 6.758158 -0.395525 -0.023239
															CHANNELS 3 Xrotation Yrotation Zrotation
															End Site
															{
																OFFSET 6.764923 -0.254147 -0.029908
															}
														}
													}
													JOINT Bip01_L_Finger0Nub
													{
														OFFSET -0.012636 -9.629153 0.045740
														CHANNELS 3 Xrotation Yrotation Zrotation
														End Site
														{
															OFFSET 0.988407 0.004791 8.293357
														}
													}
												}
											}
										}
									}
								}
								JOINT BN_hair03_01
								{
									OFFSET -5.894140 16.270622 -2.498433
									CHANNELS 3 Xrotation Yrotation Zrotation
									JOINT BN_hair03_02
									{
										OFFSET -0.189278 -7.800507 -6.219162
										CHANNELS 3 Xrotation Yrotation Zrotation
										JOINT BN_hair03_03
										{
											OFFSET 0.612345 -10.844475 -3.370718
											CHANNELS 3 Xrotation Yrotation Zrotation
											End Site
											{
												OFFSET -2.273296 2.862007 -10.769416
											}
										}
									}
								}
								JOINT Bip01_Neck1
								{
									OFFSET 9.383755 11.908699 -0.000007
									CHANNELS 3 Xrotation Yrotation Zrotation
									JOINT BN_hair02_01
									{
										OFFSET 9.126320 18.808022 -1.420810
										CHANNELS 3 Xrotation Yrotation Zrotation
										JOINT BN_hair02_02
										{
											OFFSET 0.393478 -5.181091 -5.248574
											CHANNELS 3 Xrotation Yrotation Zrotation
											JOINT BN_hair02_03
											{
												OFFSET 0.762280 -8.167076 -0.230047
												CHANNELS 3 Xrotation Yrotation Zrotation
												End Site
												{
													OFFSET -0.025837 -1.251419 -8.109770
												}
											}
										}
									}
									JOINT Bip01_Head
									{
										OFFSET 14.266129 10.475403 -0.000008
										CHANNELS 3 Xrotation Yrotation Zrotation
										JOINT BN_Reins_01
										{
											OFFSET 18.547455 -15.740112 -0.000035
											CHANNELS 3 Xrotation Yrotation Zrotation
											JOINT BN_Reins_02
											{
												OFFSET -5.372810 -5.884506 0.000028
												CHANNELS 3 Xrotation Yrotation Zrotation
												JOINT BN_Reins_03
												{
													OFFSET -6.395866 -15.947449 0.000070
													CHANNELS 3 Xrotation Yrotation Zrotation
													JOINT BN_Halter_R_01
													{
														OFFSET -1.234055 -3.096100 7.096737
														CHANNELS 3 Xrotation Yrotation Zrotation
														End Site
														{
															OFFSET 10.514435 -4.176861 -0.000004
														}
													}
													JOINT BN_Halter_L_01
													{
														OFFSET -1.234062 -3.096146 -7.096726
														CHANNELS 3 Xrotation Yrotation Zrotation
														End Site
														{
															OFFSET -10.514435 4.176865 -0.000000
														}
													}
													JOINT BN_Reins_04
													{
														OFFSET -6.737644 -16.971684 0.000074
														CHANNELS 3 Xrotation Yrotation Zrotation
														JOINT BN_Halter_R_02
														{
															OFFSET -4.688869 -11.781956 7.096771
															CHANNELS 3 Xrotation Yrotation Zrotation
															End Site
															{
																OFFSET 14.669624 -5.827511 -0.000006
															}
														}
														JOINT BN_Halter_L_02
														{
															OFFSET -4.688892 -11.782017 -7.096693
															CHANNELS 3 Xrotation Yrotation Zrotation
															End Site
															{
																OFFSET -14.669624 5.827507 -0.000002
															}
														}
														JOINT BN_Reins_05
														{
															OFFSET -6.822578 -16.971161 0.000074
															CHANNELS 3 Xrotation Yrotation Zrotation
															JOINT BN_Reins_06
															{
																OFFSET -6.140354 -15.095148 0.000066
																CHANNELS 3 Xrotation Yrotation Zrotation
																End Site
																{
																	OFFSET -15.095150 6.140352 -0.000002
																}
															}
														}
													}
												}
											}
										}
										JOINT BN_hair01_01
										{
											OFFSET 8.957344 8.870956 0.112121
											CHANNELS 3 Xrotation Yrotation Zrotation
											JOINT BN_hair01_02
											{
												OFFSET 6.002075 -2.962952 -3.121264
												CHANNELS 3 Xrotation Yrotation Zrotation
												End Site
												{
													OFFSET 5.917702 3.813591 -2.232396
												}
											}
										}
										JOINT BN_Eyebrow_R
										{
											OFFSET 11.795959 -0.430496 4.449781
											CHANNELS 3 Xrotation Yrotation Zrotation
											JOINT Bip01_Xtra06Nub
											{
												OFFSET 2.936661 -0.262573 3.246701
												CHANNELS 3 Xrotation Yrotation Zrotation
												End Site
												{
													OFFSET 2.768745 0.208199 3.394807
												}
											}
										}
										JOINT BN_Eyebrow_L
										{
											OFFSET 11.586395 -0.445618 -4.441728
											CHANNELS 3 Xrotation Yrotation Zrotation
											JOINT Bip01_Xtra05Nub
											{
												OFFSET 3.244698 -0.349442 -4.416700
												CHANNELS 3 Xrotation Yrotation Zrotation
												End Site
												{
													OFFSET 3.053162 0.072495 -4.564033
												}
											}
										}
										JOINT Bip01_R_Ear_01
										{
											OFFSET 7.142960 7.567184 4.311657
											CHANNELS 3 Xrotation Yrotation Zrotation
											JOINT Bip01_Xtra04Nub
											{
												OFFSET 9.464531 9.264214 1.682953
												CHANNELS 3 Xrotation Yrotation Zrotation
												End Site
												{
													OFFSET 8.448181 10.159340 1.910823
												}
											}
										}
										JOINT Bip01__L_Ear_01
										{
											OFFSET 7.214943 7.717056 -4.356771
											CHANNELS 3 Xrotation Yrotation Zrotation
											JOINT Bip01_Xtra03Nub
											{
												OFFSET 9.230225 8.944366 -2.322746
												CHANNELS 3 Xrotation Yrotation Zrotation
												End Site
												{
													OFFSET 8.170288 9.841324 -2.643566
												}
											}
										}
										JOINT Bip01_Jaw
										{
											OFFSET 9.196068 -4.110695 -0.000013
											CHANNELS 3 Xrotation Yrotation Zrotation
											JOINT Bip01_Ponytail1Nub
											{
												OFFSET 10.976463 -21.082108 -0.000053
												CHANNELS 3 Xrotation Yrotation Zrotation
												End Site
												{
													OFFSET 11.247093 -20.938980 0.000113
												}
											}
										}
										JOINT Bip01_HeadNub
										{
											OFFSET 29.954575 -18.249489 -0.000063
											CHANNELS 3 Xrotation Yrotation Zrotation
											End Site
											{
												OFFSET -9.198448 -13.366348 0.000168
											}
										}
									}
								}
							}
						}
					}
				}
			}
		}
	}
}
MOTION
Frames: 4
Frame Time: 0.033333
0.000000 0.000000 0.000000 0.000008 0.000000 -0.000000 -0.000000 0.000000 -0.000000 0.000000 0.000000 -0.000006 -0.003516 0.000000 -0.000022 1.917049 -0.449759 22.936602 -1.423533 3.067919 23.653114 -0.420585 1.153914 21.214267 0.327668 -0.922998 11.725006 0.203946 -1.572312 6.770906 0.143672 0.000484 10.382443 -6.187639 5.667504 -7.201921 0.531245 0.016600 -2.692619 0.031708 0.001716 -0.160757 6.394428 -4.508887 0.251811 0.000729 -0.000020 -0.003715 0.000101 -0.000139 0.000004 1.167297 -4.088899 -25.334401 1.988946 0.287765 10.188853 -0.033937 -0.001822 -0.172222 -4.324954 3.689151 5.056690 -0.000871 0.000034 -0.003712 -0.010466 -0.005211 -0.037745 0.143184 -0.019006 -11.498069 0.917530 -0.020777 6.784391 0.083465 -0.095007 0.018172 -0.052408 1.540617 -5.471444 0.000078 -0.000112 -0.000056 -0.000052 -0.014928 0.015042 -0.008351 0.000146 0.012195 -1.359554 0.419054 -0.228748 4.632346 -0.678915 0.258562 3.910478 0.385070 -5.928325 -3.813986 -0.914600 5.060661 -3.207895 -0.975567 4.844463 -0.000583 -0.130195 3.174643 7.444566 1.278306 -1.147231 -3.074511 -0.038698 0.688096 -1.002542 -0.004117 -0.069903 -0.781884 0.140333 -0.478809 -0.804180 0.123469 -0.482655 -3.870821 -0.731212 5.527827 2.899493 -2.371140 6.291645 -0.001238 -0.031387 -0.766049 -8.638696 -2.083534 3.589016 4.960861 0.006874 -0.600854 2.691553 2.076467 -0.752295 0.036600 0.063820 2.451881 -0.000913 0.100574 2.451955 -0.041479 -0.001071 0.050728 -0.084123 0.059170 -0.308580 1.010002 -0.966820 3.768512 -0.126582 1.503370 -6.994499 -0.044980 0.001637 0.046318 1.576563 0.270593 -4.547154 -1.642453 -1.248561 -7.198581 -3.787436 -3.964432 14.009534 -0.000029 0.000324 33.480074 -0.441787 -0.458728 -72.796115 -0.000060 -0.000072 -21.993991 0.000020 -0.000008 -0.026805 0.000002 -0.000016 0.012747 -0.000096 -0.000110 -34.639882 0.000036 0.000015 0.015165 0.000025 -0.000010 0.012720 -0.000048 -0.000055 -24.223455 0.000013 -0.000013 -0.000048 -0.073027 0.030628 0.020260 7.012402 1.751778 7.564557 0.161063 -0.014084 -0.126156 0.024214 -0.030049 11.786600 -0.136053 -0.002693 -0.092627 0.023219 -0.032343 11.715997 0.089452 -0.130629 0.175109 0.050267 0.015093 11.755964 -0.154120 0.027257 -0.044349 0.050131 0.014751 11.743114 0.646568 0.597925 -1.496388 -0.004503 -0.052581 11.750686 0.000071 -0.000033 11.750675 
0.000000 0.000000 0.000000 0.000008 0.000000 -0.000000 -0.000000 0.000000 -0.000000 -0.194745 2.034861 24.399932 -0.003517 -0.000000 -0.000022 1.917049 -0.448500 21.571438 -1.374039 3.015930 21.373940 -0.195578 1.123074 10.127862 0.293675 -0.941363 0.640066 -0.057578 -1.391561 -4.312724 0.035958 -0.666965 23.281484 -5.517692 10.745117 -10.823897 3.733282 -0.420182 -19.111370 -0.554953 -0.044102 2.820039 6.744149 -9.600802 -21.308771 0.000727 -0.000020 -0.003702 0.000101 -0.000135 0.000004 3.945275 -8.223200 -36.282173 -3.126883 0.264522 -15.943171 4.100379 1.013937 21.493760 -8.949278 3.692917 -18.322758 -0.000871 0.000033 -0.003712 -0.010466 -0.005212 -0.037745 -0.151139 -0.623885 0.559837 0.917530 -0.020777 6.784387 0.083463 -0.095007 0.018170 -0.251722 0.893606 3.902654 0.000078 -0.000112 -0.000059 -0.000052 -0.014928 0.015041 -0.008355 0.000145 0.012191 -8.985272 9.146421 -7.628327 1.919757 4.291158 -5.071039 3.910489 0.385055 -11.144487 -3.717760 -1.259392 10.265861 -5.093886 3.425934 -25.865716 0.000239 0.006831 -0.166738 7.134923 -3.034404 -25.881545 0.300253 -0.700591 -27.992531 -1.002556 -0.004214 -0.069891 -0.781913 0.140333 -0.478799 -0.804180 0.123469 -0.482658 -3.790113 -1.078712 10.733880 6.115555 -2.435193 -22.246479 -0.068152 0.642705 15.806881 -9.155979 -0.899201 -26.224269 1.419623 0.837496 -30.969242 2.691569 2.076516 -0.752308 0.036627 0.063833 2.451901 -0.000913 0.100573 2.451955 -0.041494 -0.001076 0.050720 -5.564509 2.712781 -9.386921 -0.388070 0.787518 -2.800546 -0.125873 1.502811 -7.331796 -0.044989 0.001616 0.046281 -0.309511 0.383376 -9.191822 1.982466 -1.328681 -6.902606 -7.315559 -3.632054 32.849064 -0.000029 0.000324 33.480068 -0.441787 -0.458727 -72.796129 -0.000060 -0.000072 -21.994001 0.000020 -0.000008 -0.026808 0.000003 -0.000016 0.012745 -0.000095 -0.000110 -34.639882 0.000036 0.000015 0.015160 0.000026 -0.000010 0.012716 -0.000048 -0.000055 -24.223461 0.000013 -0.000013 -0.000046 -0.073022 0.030634 0.020257 0.533474 9.298432 -34.377551 0.161067 -0.014083 -0.126152 0.024230 -0.030042 11.786615 -0.136098 -0.002796 -0.092647 0.023236 -0.032341 11.715972 0.089451 -0.130629 0.175095 0.050283 0.015117 11.755977 -0.154116 0.027254 -0.044350 0.050143 0.014775 11.743106 0.646568 0.597925 -1.496407 -0.004486 -0.052602 11.750684 0.000072 -0.000034 11.750673 
0.000000 0.000000 0.000000 0.000008 0.000000 -0.000000 -0.000000 0.000000 -0.000000 -1.287982 3.854531 49.592149 -0.003516 0.000000 -0.000021 1.917044 -0.446074 18.272551 -1.277198 2.894273 15.871377 0.116023 0.942687 -9.889544 0.223615 -1.027150 -19.377933 -0.346400 -0.992429 -24.330773 0.092966 -1.326922 30.381344 -4.470617 14.818353 -11.673819 6.109273 -1.403557 -32.127687 -1.129683 -0.118992 5.755377 6.741487 -13.007745 -37.488436 0.000729 -0.000021 -0.003715 0.000101 -0.000136 0.000004 4.558487 -11.097155 -42.950070 -6.554226 1.663206 -34.724405 6.795172 2.745068 37.681225 -12.302514 2.668953 -36.238122 -0.000871 0.000036 -0.003712 -0.010466 -0.005210 -0.037745 -0.298107 -1.271679 6.827812 0.917530 -0.020777 6.784389 0.083461 -0.095007 0.018172 -0.329412 0.230656 7.536182 0.000078 -0.000112 -0.000056 -0.000052 -0.014928 0.015043 -0.008353 0.000146 0.012195 -17.747632 17.443835 -14.112722 -1.158804 9.442404 -9.678598 3.910498 0.385039 -16.259361 -3.593392 -1.587634 15.371307 -4.659416 7.729575 -43.128342 0.000350 0.009916 -0.242023 5.598365 -6.474347 -46.472447 2.427341 -2.251866 -49.876476 -1.002593 -0.004214 -0.069894 -0.781938 0.140332 -0.478813 -0.804180 0.123469 -0.482650 -3.680698 -1.410982 15.840006 7.773964 -2.780251 -35.576068 -0.264138 1.160671 29.342640 -9.125071 -0.061057 -50.231762 -0.718702 2.617429 -54.133979 2.691571 2.076470 -0.752322 0.036655 0.063820 2.451882 -0.000913 0.100573 2.451956 -0.041503 -0.001069 0.050766 -12.126491 5.266495 -18.054333 -1.556400 2.651570 -9.204850 -0.125207 1.502285 -7.662559 -0.044985 0.001618 0.046283 -2.852210 0.487562 -13.738878 5.537487 -1.389158 -6.608259 -9.778517 -4.137004 45.352907 -0.000029 0.000324 33.480061 -0.441787 -0.458727 -72.796122 -0.000060 -0.000072 -21.994003 0.000019 -0.000008 -0.026808 0.000002 -0.000016 0.012745 -0.000096 -0.000110 -34.639875 0.000036 0.000015 0.015165 0.000025 -0.000010 0.012720 -0.000048 -0.000055 -24.223457 0.000014 -0.000013 -0.000051 -0.073025 0.030634 0.020257 -0.504075 12.555642 -76.541969 0.161065 -0.014079 -0.126154 0.024245 -0.030041 11.786636 -0.136127 -0.002882 -0.092649 0.023249 -0.032336 11.715943 0.089451 -0.130630 0.175088 0.050294 0.015139 11.755983 -0.154118 0.027254 -0.044350 0.050157 0.014798 11.743107 0.646568 0.597924 -1.496407 -0.004467 -0.052623 11.750686 0.000072 -0.000033 11.750679 
0.000000 0.000000 0.000000 0.000008 0.000000 -0.000000 -0.000000 0.000000 -0.000000 -3.079934 5.043100 75.115443 -0.003516 0.000000 -0.000021 1.917050 -0.446278 13.940424 -1.203493 2.756595 8.650059 0.176475 0.740706 -20.776457 0.165600 -1.100161 -30.268881 -0.400766 -0.769666 -35.215649 0.206636 -2.060374 25.916927 -5.170868 17.614448 -6.281255 7.379494 -2.221780 -39.744328 -1.764679 -0.236980 9.025339 6.100640 -13.837617 -44.354941 0.000728 -0.000022 -0.003718 0.000101 -0.000137 0.000001 3.837822 -9.681594 -41.337415 -7.486709 2.302145 -40.418061 7.770931 3.693724 44.518592 -11.918160 0.152921 -45.286043 -0.000870 0.000034 -0.003711 -0.010465 -0.005210 -0.037747 -0.424053 -2.002816 1.446658 0.917531 -0.020777 6.784391 0.083458 -0.095007 0.018173 -0.415000 -0.510310 -0.759185 0.000078 -0.000112 -0.000056 -0.000052 -0.014928 0.015043 -0.008344 0.000154 0.012251 -21.683561 13.945058 -10.936149 -3.505525 8.670583 -7.800413 3.910506 0.385022 -21.911402 -3.421651 -1.933355 21.014006 -3.818687 7.946256 -36.905414 0.017281 -0.370005 9.040339 4.669348 -8.673971 -56.795680 2.678700 -2.538313 -53.029732 -1.002379 -0.004212 -0.069866 -0.781992 0.140333 -0.478818 -0.804180 0.123469 -0.482653 -3.523578 -1.765737 21.480371 4.687670 2.527056 -17.744329 -0.372625 1.347570 34.615013 -9.184491 -0.484600 -59.221866 -0.962369 2.942119 -57.471233 2.691568 2.076517 -0.752329 0.036710 0.063820 2.451881 -0.000914 0.100573 2.451955 -0.041538 -0.001062 0.050774 -14.378549 2.719909 -11.404135 -2.622484 2.011900 -7.140016 -0.126172 1.503046 -8.025310 -0.045011 0.001631 0.046316 -3.996622 0.305484 -8.194135 5.230879 -0.996281 -4.098423 -11.871400 -8.098164 45.326460 -0.000029 0.000324 33.480064 -0.441787 -0.458728 -72.796122 -0.000060 -0.000072 -21.994001 0.000019 -0.000008 -0.026803 0.000002 -0.000016 0.012749 -0.000096 -0.000110 -34.639882 0.000035 0.000015 0.015166 0.000026 -0.000010 0.012721 -0.000048 -0.000055 -24.223462 0.000013 -0.000014 -0.000048 -0.073028 0.030628 0.020256 -0.676492 12.965776 -68.598766 0.161068 -0.014074 -0.126151 0.024277 -0.030029 11.786682 -0.136169 -0.002979 -0.092647 0.023281 -0.032330 11.715910 0.089452 -0.130631 0.175102 0.050319 0.015187 11.755990 -0.154116 0.027253 -0.044350 0.050183 0.014847 11.743097 0.646569 0.597924 -1.496405 -0.004433 -0.052664 11.750689 0.000072 -0.000033 11.750674 
